<svg xmlns="http://www.w3.org/2000/svg" viewBox="0 0 48 48">
<defs>
  <radialGradient id="r" cx="65%" cy="22%" r="80%">
    <stop stop-color="#ff6565"/><stop offset=".48" stop-color="#ed1d31"/><stop offset="1" stop-color="#980719"/>
  </radialGradient>
  <linearGradient id="g" x1="0" y1="1" x2="1" y2="0">
    <stop stop-color="#3f8d13"/><stop offset=".55" stop-color="#82cf22"/><stop offset="1" stop-color="#c4ef4c"/>
  </linearGradient>
  <linearGradient id="l" x1="0" y1="1" x2="1" y2="0">
    <stop stop-color="#26751c"/><stop offset=".6" stop-color="#63c92d"/><stop offset="1" stop-color="#b5ef57"/>
  </linearGradient>
  <linearGradient id="s" x1="0" y1="1" x2="1" y2="0">
    <stop stop-color="#6d250e"/><stop offset=".55" stop-color="#b75a25"/><stop offset="1" stop-color="#df8a3b"/>
  </linearGradient>
</defs>

<!-- apple -->
<path d="M24 14.2c-4.4-2.6-9.3-1.5-12.1 1.2C8.3 19 8.5 27.3 10.2 33
c1.7 5.7 5.7 9.1 10.1 9.8 2 .3 3.1-1.1 3.7-1.1s1.7 1.4 3.7 1.1
c4.4-.7 8.4-4.1 10.1-9.8 1.7-5.7 1.9-14-1.7-17.6-2.8-2.7-7.7-3.8-12.1-1.2z"
fill="url(#r)"/>

<!-- stem -->
<path d="M23.5 14.8c.3-3.7 1.6-6.8 3.7-9.4l2.3 1.1c-2 3.1-2.9 5.8-2.9 9.4z" fill="url(#s)"/>

<!-- leaf -->
<path d="M25.3 10.7C21.3 5.4 15.2 4.7 10.7 7.6c2.9 5.1 8.1 7.3 14.1 5.3
2.2-.7 3.7-1.5 5-2.4-1.7-.6-2.9-.6-4.5.2z" fill="url(#l)"/>
<path d="M11.7 8.2c4.6 2.5 8.5 3.8 13.1 4.3" fill="none" stroke="#277d1c" stroke-width=".65" stroke-linecap="round"/>

<!-- worm hole -->
<ellipse cx="31.6" cy="32.5" rx="7.8" ry="8.2" fill="#3e0c0b"/>
<ellipse cx="31.6" cy="32.2" rx="6.1" ry="6.5" fill="#100504"/>

<!-- worm body -->
<path d="M26.8 37.7c-1.2-3.1.2-5.9 2.6-7.3 1.7-1 2.1-2.1 1.8-3.8
-.5-2.7 1.4-4.8 4.1-4.8 3.6 0 5.9 2.4 5.9 5.8 0 3.2-2 5.2-4.9 6.2
-2.1.7-2.8 2.3-2.8 4.8z" fill="url(#g)"/>

<!-- worm head -->
<ellipse cx="36.1" cy="26.5" rx="6.1" ry="5.8" fill="url(#g)"/>
<ellipse cx="34.1" cy="25.5" rx="2" ry="2.5" fill="#fff"/>
<ellipse cx="38.2" cy="25.5" rx="2" ry="2.5" fill="#fff"/>
<ellipse cx="34.4" cy="25.8" rx="1" ry="1.35" fill="#172108"/>
<ellipse cx="38.5" cy="25.8" rx="1" ry="1.35" fill="#172108"/>
<circle cx="34.8" cy="25.3" r=".38" fill="#fff"/>
<circle cx="38.9" cy="25.3" r=".38" fill="#fff"/>
<path d="M33.7 28.2c1.6 2.1 4.2 2.3 5.7-.1-1.1 3.5-4.8 3.8-5.7.1z" fill="#253707"/>
<path d="M35.1 29.2c.8-.4 1.7-.4 2.5.1-.7 1-1.8 1-2.5-.1z" fill="#ff7478"/>

<!-- antennae -->
<path d="M33 21.3c-.6-1.5-.4-2.5.4-3.4M39.2 21.3c.8-1.2.9-2.2.5-3.2"
fill="none" stroke="#4d9717" stroke-width=".75" stroke-linecap="round"/>
<circle cx="33.4" cy="17.6" r=".8" fill="#72c72b"/>
<circle cx="39.7" cy="17.9" r=".8" fill="#72c72b"/>

<!-- apple highlights -->
<ellipse cx="15.7" cy="22.5" rx="1.2" ry="1.8" fill="#fff" opacity=".55"/>
<ellipse cx="17.1" cy="30.3" rx=".9" ry="1.3" fill="#ffb0b0" opacity=".38"/>
<ellipse cx="21.1" cy="18.3" rx=".55" ry=".75" fill="#fff" opacity=".4"/>
</svg>